# xmcd CD database file
#
# Track frame offsets:
#	150
#	34415
#	76213
#	121076
#	149800
#	184538
#	218219
#	259761
#
# Disc length: 4124 seconds
#
# Revision: 1
# Processed by: cddbd v1.5.1PL0 Copyright (c) Steve Scherf et al.
# Submitted via: CDex 1.51
#
DISCID=71101a08
DTITLE=Chris Poulsen Trio - TANG!
DYEAR=2005
DGENRE=Jazz
TTITLE0=Riverside Expressway
TTITLE1=Cubism
TTITLE2=TV Tower Tango
TTITLE3=Orange Scribble
TTITLE4=Yeh Uh-huh
TTITLE5=Synaesthesia
TTITLE6=Chameleon
TTITLE7=Camrimagic
EXTD=YEAR: 2005
EXTT0=
EXTT1=
EXTT2=
EXTT3=
EXTT4=
EXTT5=
EXTT6=
EXTT7=
PLAYORDER=
